<svg width="64" height="64" viewBox="0 0 64 64" fill="none" xmlns="http://www.w3.org/2000/svg">
  <defs>
    <linearGradient id="feature4-gradient" x1="0%" y1="0%" x2="100%" y2="100%">
      <stop offset="0%" style="stop-color:#4a9eff;stop-opacity:1" />
      <stop offset="100%" style="stop-color:#357abd;stop-opacity:1" />
    </linearGradient>
  </defs>
  
  <!-- Background -->
  <rect width="64" height="64" rx="16" fill="url(#feature4-gradient)" opacity="0.1"/>
  
  <!-- Automated Reporting Icon -->
  <g transform="translate(12, 12)">
    <!-- Document stack -->
    <rect x="8" y="6" width="24" height="30" rx="3" fill="url(#feature4-gradient)" opacity="0.3"/>
    <rect x="6" y="8" width="24" height="30" rx="3" fill="url(#feature4-gradient)" opacity="0.2"/>
    <rect x="4" y="10" width="24" height="30" rx="3" fill="url(#feature4-gradient)" opacity="0.1"/>
    
    <!-- Main document -->
    <rect x="8" y="4" width="24" height="30" rx="3" fill="white" opacity="0.9"/>
    <rect x="8" y="4" width="24" height="6" rx="3" fill="url(#feature4-gradient)"/>
    
    <!-- Document content lines -->
    <rect x="12" y="14" width="16" height="2" rx="1" fill="url(#feature4-gradient)" opacity="0.8"/>
    <rect x="12" y="18" width="14" height="2" rx="1" fill="url(#feature4-gradient)" opacity="0.6"/>
    <rect x="12" y="22" width="18" height="2" rx="1" fill="url(#feature4-gradient)" opacity="0.4"/>
    <rect x="12" y="26" width="12" height="2" rx="1" fill="url(#feature4-gradient)" opacity="0.6"/>
    <rect x="12" y="30" width="16" height="2" rx="1" fill="url(#feature4-gradient)" opacity="0.4"/>
    
    <!-- Automation gear -->
    <circle cx="32" cy="32" r="6" fill="url(#feature4-gradient)"/>
    <path d="M29 29 L35 35 M35 29 L29 35" stroke="white" stroke-width="2" stroke-linecap="round"/>
    <circle cx="32" cy="32" r="2" fill="white"/>
    
    <!-- Gear animation -->
    <g transform-origin="32 32">
      <animateTransform attributeName="transform" 
                        type="rotate" 
                        values="0;360" 
                        dur="4s" 
                        repeatCount="indefinite"/>
      <path d="M32 26 L33 28 L35 27 L34 29 L36 30 L34 31 L35 33 L33 32 L32 34 L31 32 L29 33 L30 31 L28 30 L30 29 L29 27 L31 28 Z" 
            fill="url(#feature4-gradient)" 
            opacity="0.6"/>
    </g>
    
    <!-- Check mark for completion -->
    <circle cx="36" cy="12" r="4" fill="#10b981"/>
    <path d="M34 12 L36 14 L38 10" stroke="white" stroke-width="2" stroke-linecap="round" stroke-linejoin="round" fill="none"/>
  </g>
</svg>
