<svg width="64" height="64" viewBox="0 0 64 64" fill="none" xmlns="http://www.w3.org/2000/svg">
  <defs>
    <linearGradient id="feature2-gradient" x1="0%" y1="0%" x2="100%" y2="100%">
      <stop offset="0%" style="stop-color:#4a9eff;stop-opacity:1" />
      <stop offset="100%" style="stop-color:#357abd;stop-opacity:1" />
    </linearGradient>
  </defs>
  
  <!-- Background -->
  <rect width="64" height="64" rx="16" fill="url(#feature2-gradient)" opacity="0.1"/>
  
  <!-- Smart Scheduling Icon -->
  <g transform="translate(12, 12)">
    <!-- Calendar base -->
    <rect x="4" y="8" width="32" height="28" rx="4" fill="url(#feature2-gradient)" opacity="0.2"/>
    <rect x="4" y="8" width="32" height="8" rx="4" fill="url(#feature2-gradient)"/>
    
    <!-- Calendar holes -->
    <circle cx="12" cy="6" r="2" fill="url(#feature2-gradient)" opacity="0.6"/>
    <circle cx="28" cy="6" r="2" fill="url(#feature2-gradient)" opacity="0.6"/>
    
    <!-- Calendar grid -->
    <g opacity="0.6">
      <rect x="8" y="18" width="4" height="4" rx="1" fill="url(#feature2-gradient)"/>
      <rect x="16" y="18" width="4" height="4" rx="1" fill="url(#feature2-gradient)"/>
      <rect x="24" y="18" width="4" height="4" rx="1" fill="url(#feature2-gradient)"/>
      <rect x="32" y="18" width="4" height="4" rx="1" fill="url(#feature2-gradient)"/>
      
      <rect x="8" y="26" width="4" height="4" rx="1" fill="url(#feature2-gradient)"/>
      <rect x="16" y="26" width="4" height="4" rx="1" fill="url(#feature2-gradient)" opacity="1"/>
      <rect x="24" y="26" width="4" height="4" rx="1" fill="url(#feature2-gradient)"/>
      <rect x="32" y="26" width="4" height="4" rx="1" fill="url(#feature2-gradient)"/>
    </g>
    
    <!-- AI brain icon -->
    <circle cx="32" cy="32" r="8" fill="url(#feature2-gradient)"/>
    <path d="M28 30 C28 28 30 26 32 26 C34 26 36 28 36 30 C36 32 34 34 32 34 C30 34 28 32 28 30 Z" fill="white" opacity="0.8"/>
    <circle cx="30" cy="30" r="1" fill="white"/>
    <circle cx="34" cy="30" r="1" fill="white"/>
    <circle cx="32" cy="32" r="1" fill="white"/>
  </g>
</svg>
