<svg width="64" height="64" viewBox="0 0 64 64" fill="none" xmlns="http://www.w3.org/2000/svg">
  <defs>
    <linearGradient id="feature3-gradient" x1="0%" y1="0%" x2="100%" y2="100%">
      <stop offset="0%" style="stop-color:#4a9eff;stop-opacity:1" />
      <stop offset="100%" style="stop-color:#357abd;stop-opacity:1" />
    </linearGradient>
  </defs>
  
  <!-- Background -->
  <rect width="64" height="64" rx="16" fill="url(#feature3-gradient)" opacity="0.1"/>
  
  <!-- Clinical Analytics Icon -->
  <g transform="translate(12, 12)">
    <!-- Monitor screen -->
    <rect x="4" y="8" width="32" height="20" rx="3" fill="url(#feature3-gradient)" opacity="0.2"/>
    <rect x="6" y="10" width="28" height="16" rx="2" fill="url(#feature3-gradient)" opacity="0.1"/>
    
    <!-- Heart rate line -->
    <path d="M8 18 L12 18 L14 14 L16 22 L18 10 L20 26 L22 12 L24 20 L26 16 L28 18 L32 18" 
          stroke="url(#feature3-gradient)" 
          stroke-width="2" 
          stroke-linecap="round" 
          stroke-linejoin="round" 
          fill="none">
      <animate attributeName="stroke-dasharray" 
               values="0,100;50,50;0,100" 
               dur="3s" 
               repeatCount="indefinite"/>
    </path>
    
    <!-- Monitor stand -->
    <rect x="18" y="28" width="4" height="6" fill="url(#feature3-gradient)" opacity="0.6"/>
    <rect x="14" y="34" width="12" height="2" rx="1" fill="url(#feature3-gradient)" opacity="0.6"/>
    
    <!-- Data points -->
    <circle cx="14" cy="14" r="2" fill="url(#feature3-gradient)">
      <animate attributeName="opacity" values="0.5;1;0.5" dur="2s" repeatCount="indefinite"/>
    </circle>
    <circle cx="20" cy="26" r="2" fill="url(#feature3-gradient)">
      <animate attributeName="opacity" values="1;0.5;1" dur="2s" repeatCount="indefinite"/>
    </circle>
    <circle cx="26" cy="16" r="2" fill="url(#feature3-gradient)">
      <animate attributeName="opacity" values="0.5;1;0.5" dur="2s" repeatCount="indefinite" begin="1s"/>
    </circle>
    
    <!-- Analytics indicators -->
    <rect x="34" y="12" width="8" height="2" rx="1" fill="url(#feature3-gradient)" opacity="0.8"/>
    <rect x="34" y="16" width="6" height="2" rx="1" fill="url(#feature3-gradient)" opacity="0.6"/>
    <rect x="34" y="20" width="10" height="2" rx="1" fill="url(#feature3-gradient)" opacity="0.4"/>
  </g>
</svg>
